<?xml version="1.0" encoding="utf-8"?>
<!-- Generator: Adobe Illustrator 19.0.0, SVG Export Plug-In . SVG Version: 6.00 Build 0)  -->
<svg version="1.1" id="Layer_1" xmlns="http://www.w3.org/2000/svg" xmlns:xlink="http://www.w3.org/1999/xlink" x="0px" y="0px"
	 viewBox="0 0 800 246" enable-background="new 0 0 800 246" xml:space="preserve">
<rect y="-269" fill="none" width="800" height="800"/>
<g>
	<g>
		<path fill="#0072BB" d="M221.2,47.4H120.4c-9.6,0-17.4,7.8-17.4,17.4v100.8c0,9.6,7.8,17.4,17.4,17.4h51.7l42.1,31.6l0.3-31.6h6.7
			c9.6,0,17.4-7.8,17.4-17.4V64.8C238.6,55.2,230.8,47.4,221.2,47.4z"/>
		<path fill="#FFFFFF" d="M183.7,161.9l-12.4-14.7l-14.5,10.1l-4.1-15.8l-24.6,0.8l9.3-16.4l-20-9.2l18.6-8.5l-9.1-18.1l19.1,3
			l1.9-17.3l12,8.1l5.7-17.2l11.7,15.7l11.2-8l4.4,13.2l18.5-5.8l-6.4,20.4l19,6.3l-17.8,13.3l11.2,13.4l-17.7,1.5l3,15.4l-14.6-6.5
			L183.7,161.9L183.7,161.9z"/>
	</g>
	<g>
		<path fill="#1A233C" d="M264,67.9h21.1v54.2l-0.4,2.3L309.3,95h26.9l-27.9,31.2l27.6,43.3h-26.7L284.8,127l0.4,2.4v39.9H264V67.9z
			"/>
		<path fill="#1A233C" d="M385.8,161.2c-2.6,3.5-7.5,9.8-19.5,9.8c-17.7,0-30.9-14.4-30.9-37.7c0-29.3,18.4-40.2,32.5-40.2
			c8.2,0,14.7,4.2,18.4,11.4v-9.6h20.3v74.6h-20.7V161.2z M380.3,113.9c-2.2-2.3-5.3-3.7-8.5-3.7c-3.9,0-7.9,2.1-10.5,5.5
			c-3.6,4.7-4.5,10.6-4.5,16.4c0,4.6,0.6,9,2.3,12.8c2.9,6.5,7.6,8.8,11.8,8.8c1.3,0,5.5-0.3,9.2-4.2c4.5-4.9,5.5-11.4,5.5-18.1
			C385.7,121.7,383.1,116.7,380.3,113.9z"/>
		<path fill="#1A233C" d="M440.1,94.8v8.9C445.3,96.4,452,93,461.2,93c18.4,0,30.8,15.2,30.8,39.1c0,22.7-12.6,39.2-31.8,39.2
			c-11.5,0-16.2-4.9-19.5-8.3v29.8h-21.1V94.8H440.1z M449.1,111.8c-8.2,4.2-8.8,14.5-8.8,21c0,4.9,0.6,9.8,2.7,13.5
			c2.9,5.6,7.8,7.3,12.4,7.3c10.8,0,15.1-10.8,15.1-22.9c0-8.3-2.7-20.4-14.7-20.4C453.5,110.3,451.2,110.8,449.1,111.8z"/>
		<path fill="#1A233C" d="M576.6,131.9c0,24.7-17.7,39.7-39.8,39.7c-24.6,0-37.2-18.3-37.2-39.2c0-22.1,13.9-39.5,39.7-39.5
			C564.3,92.8,576.6,111.9,576.6,131.9z M551.2,116.4c-3.9-5.7-9-6.6-12.6-6.6c-2.4,0-5.5,0.4-8.2,1.9c-8.3,4.6-9.1,15.2-9.1,20.4
			c0,2.7,0.3,5.6,0.9,8.3c2.6,11.9,11.1,13.9,16,13.9c5.3,0,9.9-2.4,12.9-6.9c3.6-5.3,3.9-12.1,3.9-16.1
			C554.9,127,554.6,121.4,551.2,116.4z"/>
		<path fill="#1A233C" d="M602.6,143.4c0.9,5.3,2,12.4,15.9,12.4c2.9,0,10.5-0.4,10.5-6.9c0-4.5-3.7-5.7-8.3-6.9
			c-2-0.6-11.8-2.9-13.9-3.5c-8.5-2.1-22-5.5-22-22.1c0-4.2,0.7-11.8,8.9-17.7c5.3-3.7,12.9-5.9,22.4-5.9c7.3,0,15.2,1.3,21.6,5.6
			c7,4.6,10.2,11.1,10.8,19.7l-19.8,1c-0.4-2.4-0.7-4.5-1.9-6.2c-0.3-0.4-3.2-4.6-11.4-4.6c-7.2,0-10.2,2.2-10.2,6c0,3,2,4.6,7.9,6
			c1.7,0.4,10.2,2.4,12.2,2.9c9.6,2.3,25.3,6,25.3,23.3c0,17.8-15.2,25-32.6,25c-5.9,0-10.6-0.7-14.2-1.7c-4.9-1.1-13.1-4.2-18-12.6
			c-3.2-5.3-3.3-9.9-3.3-13.2L602.6,143.4z"/>
		<path fill="#1A233C" d="M665.2,72.8h21.1V95H697v16.1h-10.6v58.3h-21.1v-58.3h-10.6V95h10.6V72.8z"/>
	</g>
</g>
</svg>
